<?xml version="1.0" encoding="utf-8"?>
<svg version="1.1" xmlns="http://www.w3.org/2000/svg" xmlns:xlink="http://www.w3.org/1999/xlink" x="0px" y="0px" width="283.46px" height="283.46px" viewBox="0 0 283.46 283.46" enable-background="new 0 0 283.46 283.46" xml:space="preserve">
<g>
  <g>
    <rect x="170.578" y="71.701" fill="#FFFFFF" width="5.614" height="5.613"/>
    <rect x="184.559" y="67.031" fill="#FFFFFF" width="6.318" height="6.32"/>
    <rect x="188.07" y="52.176" fill="#FFFFFF" width="9.15" height="9.15"/>
    <rect x="175.553" y="58.814" fill="#FFFFFF" width="5.023" height="5.023"/>
  </g>
  <path fill="#FFFFFF" d="M87.068,86.352V91.1c0,0,3.308,1.619,16.488,2.77v3.158h1.826l-0.078,8.777h-3.203v2.33H88.207v9.984
    h16.891l-1.35,42.416h12.054l-1.196-42.416h23.459v0.045h24.086l-0.604,42.371h12.174l-2.095-42.371h16.923v-9.98H174.65v-2.379
    h-3.195l-0.115-8.777h1.855v-3.158c13.163-1.15,16.467-2.77,16.467-2.77v-4.748c2.055-0.363,4.762-0.688,4.762-0.688v-6.32h-6.319
    v4.514h-6.845v-2.393h-4.867v1.596h-5.107v-3.352c-8.193,0.986-18.854,1.699-32.593,1.713v-0.045h-0.628
    c-45.291,0-57.192-7.645-57.192-7.645l3.429,12.041C84.301,85.773,85.007,85.988,87.068,86.352z M142.545,95.139
    c8.276-0.045,12.301-0.26,18.008-0.572v2.461h1.884l-0.085,8.777h-3.227v2.379h-16.58V95.139z M116.176,97.027v-2.461
    c5.735,0.312,9.73,0.527,18.035,0.572v12.996h-16.584v-2.33h-3.222l-0.114-8.777H116.176z"/>
  <g>
    <path fill="#FFFFFF" d="M66.078,214.21l-0.647,4.614l0.031,0.031c0.716-0.713,1.471-1.068,2.265-1.068c0.736,0,1.349,0.281,1.836,0.845c0.488,0.563,0.731,1.276,0.731,2.139c0,1.268-0.424,2.329-1.274,3.183c-0.849,0.855-2.022,1.282-3.518,1.282c-0.691,0-1.244-0.047-1.659-0.14l1.535-10.886H66.078z M65.229,220.258l-0.6,4.276c0.28,0.036,0.553,0.055,0.818,0.055c1.246,0,2.241-0.354,2.984-1.063c0.743-0.709,1.114-1.622,1.114-2.739c0-0.686-0.191-1.247-0.572-1.687c-0.381-0.439-0.867-0.658-1.458-0.658c-0.503,0-0.996,0.191-1.478,0.576C65.556,219.402,65.287,219.816,65.229,220.258z"/>
    <path fill="#FFFFFF" d="M73.554,217.927l-1.005,7.169H71.84l1.013-7.169H73.554z M73.968,214.834l-0.179,1.184h-0.701l0.179-1.184H73.968z"/>
    <path fill="#FFFFFF" d="M80.68,223.693v0.748c-0.701,0.529-1.452,0.794-2.252,0.794c-0.95,0-1.717-0.313-2.298-0.942c-0.582-0.629-0.873-1.463-0.873-2.502c0-1.127,0.322-2.076,0.966-2.848s1.429-1.156,2.354-1.156c0.774,0,1.392,0.271,1.854,0.813c0.462,0.543,0.693,1.282,0.693,2.217c0,0.161-0.011,0.343-0.031,0.546h-5.057c-0.021,0.187-0.031,0.34-0.031,0.459c0,0.748,0.222,1.395,0.666,1.94s1.035,0.818,1.772,0.818C79.197,224.581,79.942,224.285,80.68,223.693z M76.153,220.74h4.27c0.031-0.717-0.125-1.279-0.468-1.688s-0.808-0.611-1.395-0.611c-0.541,0-1.049,0.218-1.527,0.654C76.555,219.531,76.262,220.08,76.153,220.74z"/>
    <path fill="#FFFFFF" d="M84.415,217.927l-0.167,1.196l0.044,0.019c0.903-0.903,1.812-1.354,2.726-1.354c0.524,0,0.956,0.191,1.293,0.576s0.506,0.867,0.506,1.449c0,0.124-0.008,0.246-0.023,0.365l-0.686,4.918H87.4l0.67-4.816c0.021-0.15,0.031-0.293,0.031-0.428c0-0.447-0.113-0.793-0.34-1.041c-0.227-0.246-0.539-0.369-0.935-0.369c-0.803,0-1.705,0.526-2.706,1.58l-0.711,5.074h-0.7l1.005-7.169H84.415z"/>
    <path fill="#FFFFFF" d="M96.114,217.927l-3.909,7.309h-0.234l-1.661-7.309H91l1.309,5.828l3.118-5.828H96.114z"/>
    <path fill="#FFFFFF" d="M102.25,223.693v0.748c-0.701,0.529-1.452,0.794-2.252,0.794c-0.95,0-1.717-0.313-2.298-0.942c-0.582-0.629-0.873-1.463-0.873-2.502c0-1.127,0.322-2.076,0.966-2.848s1.429-1.156,2.354-1.156c0.774,0,1.392,0.271,1.854,0.813c0.462,0.543,0.693,1.282,0.693,2.217c0,0.161-0.011,0.343-0.031,0.546h-5.057c-0.021,0.187-0.031,0.34-0.031,0.459c0,0.748,0.222,1.395,0.666,1.94s1.035,0.818,1.772,0.818C100.767,224.581,101.513,224.285,102.25,223.693z M97.723,220.74h4.27c0.031-0.717-0.125-1.279-0.468-1.688s-0.808-0.611-1.395-0.611c-0.541,0-1.049,0.218-1.527,0.654C98.125,219.531,97.832,220.08,97.723,220.74z"/>
    <path fill="#FFFFFF" d="M105.985,217.927l-0.167,1.196l0.044,0.019c0.903-0.903,1.812-1.354,2.726-1.354c0.524,0,0.956,0.191,1.293,0.576s0.506,0.867,0.506,1.449c0,0.124-0.008,0.246-0.023,0.365l-0.686,4.918h-0.708l0.67-4.816c0.021-0.15,0.031-0.293,0.031-0.428c0-0.447-0.113-0.793-0.34-1.041c-0.227-0.246-0.539-0.369-0.935-0.369c-0.803,0-1.705,0.526-2.706,1.58l-0.711,5.074h-0.7l1.005-7.169H105.985z"/>
    <path fill="#FFFFFF" d="M118.424,217.927l-1.005,7.169h-0.701l0.202-1.27l-0.038-0.024c-0.894,0.956-1.821,1.434-2.782,1.434c-0.488,0-0.904-0.161-1.247-0.483c-0.343-0.322-0.514-0.756-0.514-1.301c0-0.125,0.008-0.252,0.023-0.382l0.717-5.143h0.7l-0.714,5.112c-0.01,0.098-0.016,0.191-0.016,0.279c0,0.391,0.114,0.697,0.343,0.924s0.54,0.339,0.935,0.339c0.815,0,1.715-0.565,2.701-1.695l0.695-4.959H118.424z"/>
    <path fill="#FFFFFF" d="M125.457,223.693v0.748c-0.701,0.529-1.452,0.794-2.252,0.794c-0.95,0-1.717-0.313-2.298-0.942c-0.582-0.629-0.873-1.463-0.873-2.502c0-1.127,0.322-2.076,0.966-2.848s1.429-1.156,2.354-1.156c0.774,0,1.392,0.271,1.854,0.813c0.462,0.543,0.693,1.282,0.693,2.217c0,0.161-0.011,0.343-0.031,0.546h-5.057c-0.021,0.187-0.031,0.34-0.031,0.459c0,0.748,0.222,1.395,0.666,1.94s1.035,0.818,1.772,0.818C123.974,224.581,124.719,224.285,125.457,223.693z M120.93,220.74h4.27c0.031-0.717-0.125-1.279-0.468-1.688s-0.808-0.611-1.395-0.611c-0.541,0-1.049,0.218-1.527,0.654C121.332,219.531,121.039,220.08,120.93,220.74z"/>
    <path fill="#FFFFFF" d="M139.551,214.21l-1.518,10.808c-0.821,0.145-1.465,0.218-1.933,0.218c-1.221,0-2.141-0.333-2.759-1.001s-0.927-1.44-0.927-2.318c0-1.033,0.41-1.98,1.231-2.84s2.034-1.289,3.64-1.289c0.156,0,0.506,0.02,1.052,0.062l0.514-3.639H139.551z M137.393,224.534l0.86-6.093c-0.323-0.084-0.653-0.125-0.992-0.125c-1.265,0-2.263,0.358-2.995,1.075s-1.097,1.571-1.097,2.563c0,0.852,0.286,1.525,0.857,2.018c0.571,0.494,1.28,0.74,2.127,0.74C136.538,224.713,136.951,224.654,137.393,224.534z"/>
    <path fill="#FFFFFF" d="M147.009,217.927l-1.011,7.169h-0.701l0.12-0.848c-0.766,0.658-1.587,0.987-2.465,0.987c-0.722,0-1.32-0.271-1.792-0.81c-0.473-0.541-0.709-1.227-0.709-2.058c0-1.247,0.468-2.322,1.404-3.226c0.936-0.904,2.165-1.355,3.688-1.355C146.094,217.787,146.582,217.833,147.009,217.927z M145.533,223.426l0.707-5.016c-0.255-0.062-0.549-0.094-0.881-0.094c-1.137,0-2.115,0.394-2.934,1.18c-0.818,0.787-1.227,1.775-1.227,2.965c0,0.666,0.17,1.197,0.51,1.594c0.34,0.397,0.791,0.596,1.352,0.596C143.866,224.65,144.689,224.242,145.533,223.426z"/>
    <path fill="#FFFFFF" d="M150.193,217.927l-0.168,1.196l0.045,0.019c0.902-0.903,1.812-1.354,2.726-1.354c0.524,0,0.956,0.191,1.293,0.576s0.507,0.867,0.507,1.449c0,0.124-0.008,0.246-0.023,0.365l-0.686,4.918h-0.709l0.671-4.816c0.021-0.15,0.03-0.293,0.03-0.428c0-0.447-0.113-0.793-0.34-1.041c-0.227-0.246-0.538-0.369-0.934-0.369c-0.803,0-1.705,0.526-2.706,1.58l-0.712,5.074h-0.699l1.004-7.169H150.193z"/>
    <path fill="#FFFFFF" d="M161.129,218.457v0.779c-0.847-0.53-1.623-0.795-2.33-0.795c-0.404,0-0.752,0.1-1.039,0.3c-0.289,0.2-0.434,0.44-0.434,0.722c0,0.197,0.082,0.398,0.245,0.604s0.622,0.542,1.376,1.009c0.753,0.467,1.25,0.874,1.488,1.222c0.238,0.349,0.358,0.701,0.358,1.06c0,0.52-0.228,0.963-0.682,1.328c-0.454,0.367-1.009,0.55-1.663,0.55c-0.868,0-1.671-0.312-2.408-0.935l0.219-0.756c0.648,0.69,1.389,1.036,2.221,1.036c0.451,0,0.825-0.109,1.121-0.327c0.297-0.219,0.444-0.492,0.444-0.819c0-0.224-0.088-0.454-0.265-0.694c-0.176-0.238-0.635-0.598-1.375-1.078s-1.217-0.873-1.43-1.18s-0.32-0.61-0.32-0.912c0-0.504,0.219-0.927,0.654-1.27c0.438-0.343,0.979-0.514,1.629-0.514C159.693,217.787,160.422,218.01,161.129,218.457z"/>
    <path fill="#FFFFFF" d="M169.582,214.21l-1.527,10.886h-0.708l1.534-10.886H169.582z"/>
    <path fill="#FFFFFF" d="M177.258,217.927l-1.011,7.169h-0.7l0.119-0.848c-0.766,0.658-1.587,0.987-2.465,0.987c-0.722,0-1.319-0.271-1.792-0.81c-0.473-0.541-0.709-1.227-0.709-2.058c0-1.247,0.468-2.322,1.403-3.226c0.936-0.904,2.166-1.355,3.688-1.355C176.344,217.787,176.832,217.833,177.258,217.927z M175.782,223.426l0.708-5.016c-0.256-0.062-0.549-0.094-0.881-0.094c-1.138,0-2.115,0.394-2.934,1.18c-0.818,0.787-1.228,1.775-1.228,2.965c0,0.666,0.17,1.197,0.511,1.594c0.34,0.397,0.791,0.596,1.352,0.596C174.115,224.65,174.939,224.242,175.782,223.426z"/>
    <path fill="#FFFFFF" d="M190.802,214.21l-1.519,10.808c-0.82,0.145-1.465,0.218-1.932,0.218c-1.222,0-2.141-0.333-2.76-1.001c-0.617-0.668-0.927-1.44-0.927-2.318c0-1.033,0.41-1.98,1.231-2.84c0.82-0.859,2.033-1.289,3.639-1.289c0.156,0,0.507,0.02,1.053,0.062l0.514-3.639H190.802z M188.645,224.534l0.859-6.093c-0.322-0.084-0.653-0.125-0.992-0.125c-1.265,0-2.263,0.358-2.994,1.075s-1.098,1.571-1.098,2.563c0,0.852,0.286,1.525,0.857,2.018c0.572,0.494,1.281,0.74,2.127,0.74C187.789,224.713,188.202,224.654,188.645,224.534z"/>
    <path fill="#FFFFFF" d="M198.26,217.927l-1.012,7.169h-0.699l0.119-0.848c-0.766,0.658-1.588,0.987-2.465,0.987c-0.723,0-1.32-0.271-1.793-0.81c-0.473-0.541-0.709-1.227-0.709-2.058c0-1.247,0.469-2.322,1.404-3.226c0.936-0.904,2.165-1.355,3.688-1.355C197.345,217.787,197.833,217.833,198.26,217.927z M196.783,223.426l0.708-5.016c-0.255-0.062-0.548-0.094-0.88-0.094c-1.139,0-2.116,0.394-2.935,1.18c-0.817,0.787-1.228,1.775-1.228,2.965c0,0.666,0.17,1.197,0.511,1.594c0.341,0.397,0.791,0.596,1.353,0.596C195.117,224.65,195.941,224.242,196.783,223.426z"/>
    <path fill="#FFFFFF" d="M203.907,217.927l-0.078,0.53h-1.899l-0.656,3.443c-0.129,0.832-0.194,1.344-0.194,1.535c0,0.405,0.109,0.72,0.327,0.943c0.219,0.223,0.488,0.334,0.811,0.334c0.431,0,0.888-0.207,1.371-0.623v0.654c-0.504,0.328-1,0.491-1.488,0.491c-0.52,0-0.944-0.177-1.273-0.53c-0.33-0.353-0.496-0.791-0.496-1.316c0-0.395,0.07-0.928,0.211-1.598l0.685-3.334h-1.425l0.086-0.53h1.412l0.325-1.636h0.699l-0.337,1.636H203.907z"/>
    <path fill="#FFFFFF" d="M211.342,217.927l-1.012,7.169h-0.7l0.12-0.848c-0.766,0.658-1.588,0.987-2.465,0.987c-0.723,0-1.32-0.271-1.793-0.81c-0.473-0.541-0.709-1.227-0.709-2.058c0-1.247,0.468-2.322,1.404-3.226c0.936-0.904,2.164-1.355,3.688-1.355C210.426,217.787,210.914,217.833,211.342,217.927z M209.865,223.426l0.707-5.016c-0.254-0.062-0.548-0.094-0.88-0.094c-1.138,0-2.116,0.394-2.935,1.18c-0.817,0.787-1.227,1.775-1.227,2.965c0,0.666,0.17,1.197,0.51,1.594c0.341,0.397,0.791,0.596,1.353,0.596C208.199,224.65,209.022,224.242,209.865,223.426z"/>
  </g>
  <g>
    <path fill="#FFFFFF" d="M143.617,191.693c0,7.533,0.145,9.645,0.336,11.035c0.191,1.248,0.385,1.775,1.152,2.158l0.047,0.098v0.719c-1.344-0.096-2.254-0.096-3.262-0.096s-1.92,0-3.264,0.096v-0.719l0.049-0.098c0.768-0.383,0.959-0.91,1.151-2.158c0.192-1.391,0.335-3.502,0.335-11.035c0-6.381,0-9.787-0.143-12.57h-0.527c-1.201,0-1.873,0.48-2.496,1.582c-0.623,1.104-0.912,2.736-1.055,4.607l-0.097,0.047h-0.911c0.096-2.686,0.287-5.854,0.287-7.676c2.447,0.096,4.318,0.096,6.67,0.096c2.351,0,4.174,0,6.668-0.096c0,1.822,0.145,4.99,0.289,7.676h-0.912l-0.096-0.047c-0.145-1.871-0.432-3.504-1.056-4.607c-0.624-1.102-1.343-1.582-2.495-1.582h-0.527C143.617,181.906,143.617,185.312,143.617,191.693z"/>
    <path fill="#FFFFFF" d="M167.701,190.877c0,10.363-3.07,15.209-7.244,15.209c-4.605,0-7.148-4.846-7.148-13.816c0-10.363,2.782-14.971,7.244-14.971C165.303,177.299,167.701,183.488,167.701,190.877z M163.479,191.309c0-8.061-0.624-12.33-2.975-12.33c-2.255,0-2.976,2.783-2.976,12.811c0,9.26,0.816,12.666,3.023,12.666S163.479,201.338,163.479,191.309z"/>
    <path fill="#FFFFFF" d="M188.092,204.984v0.719c-1.344-0.096-4.414-0.096-5.566-0.096c-0.527-3.934-1.199-8.252-2.015-12.762c-0.192-1.104-0.815-1.488-1.487-1.488H178.4c0,7.533,0.143,9.98,0.336,11.371c0.191,1.248,0.383,1.775,1.15,2.158l0.049,0.098v0.719c-1.344-0.096-2.256-0.096-3.264-0.096c-1.007,0-1.918,0-3.262,0.096v-0.719l0.048-0.098c0.768-0.383,0.96-0.91,1.151-2.158c0.191-1.391,0.336-3.502,0.336-11.035s-0.145-9.645-0.336-11.035c-0.191-1.248-0.384-1.727-1.151-2.16l-0.048-0.096v-0.719c1.344,0.096,2.255,0.096,3.262,0.096c1.199,0,1.871,0,4.271-0.096c3.215-0.145,5.66,2.494,5.66,6.094c0,3.357-1.822,5.709-4.557,6.764c1.295,0.336,2.351,1.439,2.543,2.736c0.432,2.781,1.007,5.9,1.774,9.451c0.239,1.008,0.911,1.775,1.679,2.158L188.092,204.984z M178.4,190.109h0.623c2.207,0,3.551-1.582,3.551-5.422c0-3.357-0.816-5.469-3.311-5.469c-0.24,0-0.48,0-0.672,0.096C178.447,182.098,178.4,185.023,178.4,190.109z"/>
    <path fill="#FFFFFF" d="M197.781,202.729c0.191,1.248,0.384,1.775,1.152,2.158l0.047,0.098v0.719c-1.344-0.096-2.254-0.096-3.262-0.096s-1.92,0-3.264,0.096v-0.719l0.049-0.098c0.768-0.383,0.959-0.91,1.15-2.158c0.193-1.391,0.336-3.502,0.336-11.035s-0.143-9.645-0.336-11.035c-0.191-1.248-0.383-1.727-1.15-2.16l-0.049-0.096v-0.719c1.344,0.096,2.256,0.096,3.264,0.096s1.918,0,3.262-0.096v0.719l-0.047,0.096c-0.769,0.434-0.961,0.912-1.152,2.16c-0.191,1.391-0.336,3.502-0.336,11.035S197.59,201.338,197.781,202.729z"/>
    <path fill="#FFFFFF" d="M210.592,202.729c0.191,1.248,0.383,1.775,1.15,2.158l0.049,0.098v0.719c-1.344-0.096-2.256-0.096-3.263-0.096c-1.008,0-1.919,0-3.263,0.096v-0.719l0.048-0.098c0.769-0.383,0.96-0.91,1.151-2.158c0.191-1.391,0.336-3.502,0.336-11.035s-0.145-9.645-0.336-11.035c-0.191-1.248-0.383-1.727-1.151-2.16l-0.048-0.096v-0.719c1.344,0.096,2.255,0.096,3.263,0.096c1.007,0,1.919,0,3.263-0.096v0.719l-0.049,0.096c-0.768,0.434-0.959,0.912-1.15,2.16c-0.192,1.391-0.336,3.502-0.336,11.035S210.399,201.338,210.592,202.729z"/>
  </g>
  <path fill="#FFFFFF" d="M69.494,205.703c-1.246-0.047-2.062-0.096-3.549-0.096c-1.008,0-1.92,0-3.264,0.096v-0.719l0.049-0.098c0.768-0.383,0.959-0.91,1.15-2.158c0.191-1.391,0.336-3.502,0.336-11.035s-0.145-9.645-0.336-11.035c-0.191-1.248-0.383-1.727-1.15-2.16l-0.049-0.096v-0.719c1.344,0.096,2.256,0.096,3.264,0.096c1.246,0,1.918,0,3.646-0.096c5.134-0.289,8.396,4.941,8.396,12.715C77.987,201.576,73.43,205.943,69.494,205.703z M73.766,190.541c0-8.061-1.488-11.467-4.463-11.467c-0.48,0-1.055,0.049-1.439,0.145c-0.144,1.008-0.191,2.734-0.191,12.475c0,6.334,0.048,8.877,0.191,10.795c0.096,1.248,0.576,1.68,1.728,1.68C72.709,204.168,73.766,201.002,73.766,190.541z"/>
  <path fill="#FFFFFF" d="M97.607,204.984v0.719c-1.342-0.096-2.59-0.096-3.598-0.096s-1.822,0-3.166,0.096v-0.719l0.047-0.098c0.768-0.191,1.152-0.623,1.057-1.439c-0.24-2.109-0.768-5.805-1.248-8.348c-0.623-0.047-1.439-0.096-2.255-0.096c-0.672,0-1.2,0.049-1.823,0.096c-0.432,2.207-0.959,5.758-1.199,7.629c-0.192,1.248,0,1.871,0.623,2.158l0.049,0.098v0.719c-0.864-0.096-1.729-0.096-2.496-0.096s-1.295,0-2.158,0.096v-0.719l0.048-0.098c0.863-0.287,1.487-0.91,1.774-2.158c1.535-6.525,3.072-15.162,4.367-23.51l0.096-0.191c1.199-0.721,2.158-1.393,3.215-2.447h0.432c1.295,9.02,2.783,17.32,4.559,26.148c0.239,1.248,0.768,1.822,1.631,2.158L97.607,204.984z M90.508,193.66c-0.432-3.119-1.199-8.012-1.68-10.748c-0.863,3.455-1.488,6.91-2.016,10.748c0.527,0.049,1.152,0.096,1.729,0.096C89.309,193.756,89.883,193.709,90.508,193.66z"/>
  <path fill="#FFFFFF" d="M108.883,191.693c0,7.533,0.143,9.645,0.336,11.035c0.191,1.248,0.383,1.775,1.15,2.158l0.049,0.098v0.719c-1.344-0.096-2.256-0.096-3.264-0.096c-1.006,0-1.918,0-3.262,0.096v-0.719l0.049-0.098c0.768-0.383,0.959-0.91,1.15-2.158c0.191-1.391,0.336-3.502,0.336-11.035c0-6.381,0-9.787-0.145-12.57h-0.527c-1.199,0-1.871,0.48-2.494,1.582c-0.625,1.104-0.912,2.736-1.057,4.607l-0.096,0.047h-0.911c0.097-2.686,0.288-5.854,0.288-7.676c2.447,0.096,4.318,0.096,6.668,0.096c2.352,0,4.176,0,6.67-0.096c0,1.822,0.145,4.99,0.287,7.676h-0.91l-0.096-0.047c-0.145-1.871-0.433-3.504-1.057-4.607c-0.623-1.102-1.344-1.582-2.494-1.582h-0.529C108.883,181.906,108.883,185.312,108.883,191.693z"/>
  <path fill="#FFFFFF" d="M132.344,204.984v0.719c-1.344-0.096-2.592-0.096-3.6-0.096c-1.007,0-1.822,0-3.166,0.096v-0.719l0.049-0.098c0.768-0.191,1.15-0.623,1.055-1.439c-0.24-2.109-0.768-5.805-1.247-8.348c-0.624-0.047-1.44-0.096-2.255-0.096c-0.672,0-1.199,0.049-1.824,0.096c-0.432,2.207-0.959,5.758-1.199,7.629c-0.191,1.248,0,1.871,0.625,2.158l0.047,0.098v0.719c-0.863-0.096-1.727-0.096-2.494-0.096s-1.296,0-2.16,0.096v-0.719l0.049-0.098c0.863-0.287,1.486-0.91,1.775-2.158c1.535-6.525,3.07-15.162,4.365-23.51l0.096-0.191c1.199-0.721,2.16-1.393,3.215-2.447h0.432c1.296,9.02,2.783,17.32,4.559,26.148c0.24,1.248,0.768,1.822,1.631,2.158L132.344,204.984z M125.242,193.66c-0.432-3.119-1.199-8.012-1.68-10.748c-0.863,3.455-1.486,6.91-2.015,10.748c0.528,0.049,1.151,0.096,1.728,0.096C124.043,193.756,124.619,193.709,125.242,193.66z"/>
</g>
</svg>
