<svg width="117" height="109" viewBox="0 0 117 109" fill="none" xmlns="http://www.w3.org/2000/svg">
<path d="M95.3191 19.525H89.7051V25.138H95.3191V19.525Z" fill="#AB0000"/>
<path d="M110.004 14.855H103.686V21.175H110.004V14.855Z" fill="#AB0000"/>
<path d="M116.347 0H107.197V9.15H116.347V0Z" fill="#AB0000"/>
<path d="M99.7032 6.63794H94.6802V11.6609H99.7032V6.63794Z" fill="#AB0000"/>
<path d="M6.195 34.176V38.924C6.195 38.924 9.503 40.543 22.683 41.694V44.852H24.509L24.431 53.629H21.228V55.959H7.334V65.943H24.225L22.875 108.359H34.929L33.733 65.943H57.192V65.988H81.278L80.674 108.359H92.848L90.753 65.988H107.676V56.008H93.777V53.629H90.582L90.467 44.852H92.322V41.694C105.485 40.544 108.789 38.924 108.789 38.924V34.176C110.844 33.813 113.551 33.488 113.551 33.488V27.168H107.232V31.682H100.387V29.289H95.52V30.885H90.413V27.533C82.22 28.519 71.559 29.232 57.82 29.246V29.201H57.192C11.901 29.201 0 21.556 0 21.556L3.429 33.597C3.428 33.597 4.134 33.812 6.195 34.176ZM61.672 42.963C69.948 42.918 73.973 42.703 79.68 42.391V44.852H81.564L81.479 53.629H78.252V56.008H61.672V42.963ZM35.303 44.851V42.39C41.038 42.702 45.033 42.917 53.338 42.962V55.958H36.754V53.628H33.532L33.418 44.851H35.303Z" fill="#AB0000"/>
</svg>
